<?xml version="1.0" encoding="UTF-8"?>
<svg id="_Ñëîé_1" data-name="Ñëîé_1" xmlns="http://www.w3.org/2000/svg" xmlns:xlink="http://www.w3.org/1999/xlink" version="1.1" viewBox="0 0 2000 2000">
  <!-- Generator: Adobe Illustrator 29.3.0, SVG Export Plug-In . SVG Version: 2.1.0 Build 146)  -->
  <path d="M499.2,1188.4c56.9-18.6,116-24.5,177.4-17.6,76.8,8.6,145.3,37.8,205,86.1,26.2,21.2,48.7,43.2,67.4,65.9,39.3,47.8,49.7,83.4,50.7,88,.1.5.4.9.9.9.5,0,.9-.3,1-.8,2.5-11.6,6.4-21.9,12.6-32.6,45-77.8,107.8-135.7,188.4-173.7,95.1-44.9,201.9-46,301.4-15.2,8.6,2.7,11.6-1.8,11.6-10,0-49.4.1-98.9.2-148.5l-.2-134.9c0-72.4,0-144.6-.2-216.6,0-16.1-1.1-27.6-3.4-34.6-6.2-19.3-19.9-32.4-41.2-39.4-7.4-2.4-19.9-4.2-19.9,5.9,0,102.3,0,204.6.1,306.9l-.4,186.2c0,.8-.8,1.5-1.6,1.4-98.8-16.6-192.2-2-280.2,43.8-31.8,16.5-60.6,37.2-86.3,62.1-.4.4-1.2.1-1.2-.5l.5-539.9c.1-.1.2-.2.3-.3l212.7-.3c3.7,0,6.7-3,6.7-6.7,0-40.9,0-100.2,0-139.1,0-3.7-3-6.7-6.7-6.7h-213.4c0-57-.1-122.8-.5-180.5,0-3.7-3-6.6-6.7-6.6-44.3,0-104.9-.1-147.7,0-3.7,0-6.7,3-6.7,6.7.1,57.4.3,123.3.6,180.4h-215.3c-3.7,0-6.7,3.1-6.7,6.8-.2,41.7-.2,92.3,0,132.1,0,8.7,2.5,13.4,11.7,13.3,30-.2,99.8,0,209.2.2.6,0,.8.3.8.8l.2,540.4c0,.6-.2.7-.6.3-92.6-86.2-219.2-126.3-344.7-108.5-8,1.1-15.6,2.3-23,3.4-1.1.2-1.6-.3-1.6-1.4-.2-164.6-.4-327.9-.6-490,0-11.3-6-13.6-16.1-11.6-30.6,6.1-48.3,31.6-48.2,62.4.2,148.7,0,297.3-.8,446,.1,21.9,0,43.8-.1,65.7-.1,11.2,4.5,13.4,14.6,10.1Z"/>
  <path d="M395.9,1335.6c15.8-7.2,31.9-13.4,48.5-18.5,43.2-13.3,88.7-24.2,133.8-28.6,143.7-13.9,296.4,22.3,397.3,131.3.8.9,2.3.1,2-1.1-1.1-4.8-3-9.4-5.6-14.1-37-64.9-98.4-120.3-166.5-150.7-113.4-50.7-239.9-47.2-354.3-1.7-.8.3-1.2,0-1.2-.8l.2-210.6c-.2-90.9-.4-182-.7-273.3,0-8.8-11.8-8.3-17.8-6.8-21,5.4-35.2,18.4-42.5,38.9-2.7,7.7-4.2,17.8-4.2,30.4,0,19.1,0,38.3,0,57.4.4,147.4.3,294.8-.2,442.1,0,7.6,5.2,8.7,11.1,6Z"/>
  <path d="M1341.3,1218c-39.2,1.9-78.7,11.4-115.8,24.1-42.1,14.5-77.5,36.2-112.2,65.4-29.9,25.2-54.6,52.2-74.1,81-4.5,6.7-16.4,23.7-15.4,31.7.2,1.2,1.7,1.7,2.5.8,47.7-52.3,105.4-89.1,173.1-110.3,43.6-13.7,84.5-21.7,122.9-24.1,97.6-6.1,192.8,10.9,285.7,50.9.7.3,1.6.7,2.4.8,3.9.3,5.5-5.4,5.5-9.8-.2-72.1-.2-144.3,0-216.6,0-88.4.1-176.9,0-265.5,0-14.9.4-29.6-3.5-43-6.7-23-22-37.5-45.9-43.8-5.3-1.4-9.5-.4-12.5,2.8-1.9,2.1-2.9,5.4-2.9,9.9-.1,82-.2,164-.4,245.8v232.5c.1.8-.2,1.1-1,.8-67.3-25.7-136.8-36.9-208.4-33.5Z"/>
  <path d="M1697.1,1432.1c-5.8-14-14.9-21-28.6-26.8-58.7-24.6-116.2-43.3-172.6-56.1-102.9-23.3-204.5-20.1-302.5,14.2-47.7,16.7-87.7,42.7-121.6,79.5-8.8,9.6-15.1,15.7-18.9,18.5-30.5,22.1-62.3,24.2-95.3,6.4-5.6-3-12.6-8-16.9-12.7-34.9-38.3-72.8-67.2-121.3-86.9-66.2-27-135.8-38-208.7-33.1-46.6,3.2-91.9,10.5-135.9,22-51.1,13.3-100.7,29.8-149.2,50.9-13.6,5.9-21.9,15.4-25.2,28.6-7.2,29.1,14.8,61.1,47.3,49.5,13.4-4.8,33.2-12.1,59.5-21.9,71.9-27.1,153.4-43.8,232-44.5,76.7-.7,149.4,14.6,218,45.9,1.8.8,3.1,2.2,3.7,4.2,8.1,25.5,22.9,45.7,44.7,61.9,76.9,57.3,202.5,33.6,235-64.1.2-.7.7-1.2,1.3-1.5,55.6-25.8,111.2-40.7,167-44.6,93.2-6.5,179.4,6.4,264.9,36.1,22.9,8,45.6,16.5,68.2,25.6,16,6.5,29.6,9,42.5-2.1,16.1-14,20.3-30.4,12.6-49.1Z"/>
</svg>